<?xml version="1.0" encoding="UTF-8"?>
<!DOCTYPE svg PUBLIC "-//W3C//DTD SVG 1.1//EN" "http://www.w3.org/Graphics/SVG/1.1/DTD/svg11.dtd">
<!-- Creator: CorelDRAW 2020 (64-Bit Versión de evaluación) -->
<svg xmlns="http://www.w3.org/2000/svg" xml:space="preserve" width="29px" height="31px" version="1.1" style="shape-rendering:geometricPrecision; text-rendering:geometricPrecision; image-rendering:optimizeQuality; fill-rule:evenodd; clip-rule:evenodd"
viewBox="0 0 0.213 0.231"
 xmlns:xlink="http://www.w3.org/1999/xlink"
 xmlns:xodm="http://www.corel.com/coreldraw/odm/2003">
 <defs>
  <style type="text/css">
   <![CDATA[
    .str0 {stroke:#203000;stroke-width:0.002;stroke-miterlimit:22.9256}
    .str1 {stroke:#2A5000;stroke-width:0.002;stroke-miterlimit:22.9256}
    .str2 {stroke:#64AC00;stroke-width:0.002;stroke-miterlimit:22.9256}
    .str3 {stroke:#8AEF00;stroke-width:0.002;stroke-miterlimit:22.9256}
    .fil0 {fill:none}
    .fil1 {fill:#2A5000}
    .fil2 {fill:#64AC00}
    .fil3 {fill:#8AEF00}
   ]]>
  </style>
 </defs>
 <g id="Capa_x0020_1">
  <metadata id="CorelCorpID_0Corel-Layer"/>
  <g id="_2354743463632">
   <path class="fil0 str0" d="M0.106 0.006c0.059,0 0.106,0.047 0.106,0.105 0,0.058 -0.047,0.106 -0.106,0.106 -0.058,0 -0.105,-0.048 -0.105,-0.106 0,-0.058 0.047,-0.105 0.105,-0.105z"/>
   <path class="fil1 str1" d="M0.082 0.147c0.022,0.01 0.032,0.036 0.022,0.057 -0.01,0.022 -0.035,0.031 -0.057,0.022 -0.022,-0.01 -0.031,-0.035 -0.021,-0.057 0.009,-0.022 0.035,-0.031 0.056,-0.022z"/>
   <path class="fil2 str2" d="M0.128 0.07c0.017,0.008 0.024,0.028 0.017,0.045 -0.008,0.017 -0.028,0.025 -0.045,0.017 -0.017,-0.007 -0.025,-0.028 -0.017,-0.045 0.007,-0.017 0.028,-0.024 0.045,-0.017z"/>
   <path class="fil3 str3" d="M0.165 0.003c0.012,0.006 0.018,0.021 0.012,0.034 -0.005,0.013 -0.021,0.018 -0.033,0.013 -0.013,-0.006 -0.019,-0.021 -0.013,-0.034 0.006,-0.013 0.021,-0.018 0.034,-0.013z"/>
  </g>
 </g>
</svg>
